<svg width="512" height="512" viewBox="0 0 512 512" fill="none" xmlns="http://www.w3.org/2000/svg">
<rect width="512" height="512" rx="164" fill="url(#paint0_linear_129_1512)"/>
<path d="M226.197 233.122C226.197 233.122 270.664 232.881 300.21 235.609C336 240 351.178 262.171 355.651 295.093C359.803 361.116 299.639 364.198 252 365C221.792 365.522 197.421 365.642 197.421 365.642C197.421 365.642 270 452 361.167 388.982C362.571 387.939 404.994 357.044 401.946 293.387C397.914 209.047 330.5 188.303 307.491 188.303C290.502 187.722 229.166 188.043 229.166 188.043L226.939 188.364C201.506 192.095 200.904 228.568 226.197 233.122Z" fill="white"/>
<path d="M288.905 278.863C288.905 278.863 241.438 279.103 211.893 276.375C183.51 273.767 160.924 249.813 156.451 216.891C152.299 150.868 208.861 148.303 256.5 147.5C286.708 146.979 311.079 146.858 311.079 146.858C311.079 146.858 245.5 66.5 150.935 123.022C149.531 124.065 107.108 154.96 110.157 218.617C114.188 302.957 185.5 323.046 204.611 323.701C221.601 324.283 285.937 323.962 285.937 323.962L288.163 323.641C313.597 319.889 314.199 283.417 288.905 278.863Z" fill="white"/>
<rect x="71" y="324" width="50" height="238" rx="25" transform="rotate(-90 71 324)" fill="white"/>
<rect x="206" y="238" width="50" height="235" rx="25" transform="rotate(-90 206 238)" fill="white"/>
<defs>
<linearGradient id="paint0_linear_129_1512" x1="58" y1="-47" x2="422" y2="512" gradientUnits="userSpaceOnUse">
<stop stop-color="#DE5F5F"/>
<stop offset="1" stop-color="#FF6341"/>
</linearGradient>
</defs>
</svg>
