<svg width="153" height="53" viewBox="0 0 153 53" fill="none" xmlns="http://www.w3.org/2000/svg">
<path d="M0.000244141 2C0.000244141 0.895429 0.895675 0 2.00024 0H150.406C151.51 0 152.406 0.895431 152.406 2V50.4558C152.406 51.5604 151.51 52.4558 150.406 52.4558H2.00025C0.895678 52.4558 0.000244141 51.5604 0.000244141 50.4558V2Z" fill="white"/>
<path fill-rule="evenodd" clip-rule="evenodd" d="M63.7741 18.718V14.876C61.378 14.7315 59.5603 15.2272 58.321 16.3633C57.1023 17.4787 56.493 19.1414 56.493 21.3516V21.5065H54.2622V25.3484H56.493V36.9982H60.4898V25.3484H63.7741V21.5065H60.4898V21.3516C60.4898 19.4513 61.5846 18.5734 63.7741 18.718ZM12.8901 15.3098H21.5035C24.4779 15.3098 26.9566 16.3529 28.9395 18.4391C30.9431 20.5047 31.9449 23.0763 31.9449 26.154C31.9449 29.2317 30.9431 31.8033 28.9395 33.8689C26.9566 35.9551 24.4779 36.9982 21.5035 36.9982H12.8901V23.314H17.1658V32.9084H21.5035C23.3832 32.9084 24.9117 32.2887 26.0891 31.0494C27.2664 29.7687 27.8551 28.1369 27.8551 26.154C27.8551 24.1504 27.2664 22.529 26.0891 21.2896C24.9117 20.0296 23.3832 19.3996 21.5035 19.3996H17.1658V19.4411H12.8901V15.3098ZM51.3991 30.8945H39.7184C40.2348 32.8361 41.691 33.8069 44.087 33.8069C45.6156 33.8069 46.7723 33.2905 47.5572 32.2577L50.7795 34.1167C49.2509 36.3269 46.9995 37.432 44.0251 37.432C41.4638 37.432 39.4085 36.6574 37.8594 35.1082C36.3102 33.559 35.5356 31.6071 35.5356 29.2524C35.5356 26.9389 36.2999 24.9973 37.8284 23.4275C39.3362 21.8576 41.2985 21.0727 43.7152 21.0727C46.008 21.0727 47.8773 21.8576 49.3232 23.4275C50.8104 24.9973 51.554 26.9389 51.554 29.2524C51.554 29.6861 51.5024 30.2335 51.3991 30.8945ZM39.6564 27.7961H47.5572C47.33 26.784 46.8652 26.0094 46.1629 25.4724C45.4813 24.9353 44.6654 24.6668 43.7152 24.6668C42.6411 24.6668 41.753 24.9457 41.0507 25.5034C40.3484 26.0404 39.8836 26.8047 39.6564 27.7961ZM71.152 36.9982H67.1552V21.5065H71.152V36.9982ZM89.1556 22.7768C88.0815 21.6408 86.6872 21.0727 84.9728 21.0727C82.8453 21.0727 81.3064 21.7957 80.3563 23.2416V21.5065H76.3594V36.9982H80.3563V28.6327C80.3563 27.3727 80.6558 26.4225 81.2548 25.7822C81.8745 25.1212 82.711 24.7907 83.7644 24.7907C84.7146 24.7907 85.4582 25.0696 85.9952 25.6273C86.5529 26.185 86.8318 26.9699 86.8318 27.982V36.9982H90.8287V27.4863C90.8287 25.4827 90.271 23.9129 89.1556 22.7768ZM112.924 21.0727C114.701 21.0727 116.116 21.6511 117.169 22.8078C118.243 23.9645 118.78 25.5137 118.78 27.4553V36.9982H114.783V27.7342C114.783 26.8047 114.556 26.0817 114.102 25.5653C113.647 25.0489 113.007 24.7907 112.181 24.7907C111.272 24.7907 110.559 25.0902 110.043 25.6893C109.547 26.2883 109.299 27.1558 109.299 28.2919V36.9982H105.303V27.7342C105.303 26.8047 105.075 26.0817 104.621 25.5653C104.166 25.0489 103.526 24.7907 102.7 24.7907C101.812 24.7907 101.099 25.1006 100.562 25.7202C100.046 26.3193 99.7875 27.1765 99.7875 28.2919V36.9982H95.7906V21.5065H99.7875V23.1486C100.717 21.7647 102.153 21.0727 104.094 21.0727C106.015 21.0727 107.42 21.8163 108.308 23.3035C109.32 21.8163 110.859 21.0727 112.924 21.0727ZM127.101 30.8945H138.782C138.885 30.2335 138.937 29.6861 138.937 29.2524C138.937 26.9389 138.193 24.9973 136.706 23.4275C135.26 21.8576 133.391 21.0727 131.098 21.0727C128.681 21.0727 126.719 21.8576 125.211 23.4275C123.683 24.9973 122.919 26.9389 122.919 29.2524C122.919 31.6071 123.693 33.559 125.242 35.1082C126.791 36.6574 128.847 37.432 131.408 37.432C134.382 37.432 136.634 36.3269 138.162 34.1167L134.94 32.2577C134.155 33.2905 132.998 33.8069 131.47 33.8069C129.074 33.8069 127.618 32.8361 127.101 30.8945ZM134.94 27.7961H127.039C127.267 26.8047 127.731 26.0404 128.434 25.5034C129.136 24.9457 130.024 24.6668 131.098 24.6668C132.048 24.6668 132.864 24.9353 133.546 25.4724C134.248 26.0094 134.713 26.784 134.94 27.7961Z" fill="#1B1C1E"/>
<rect x="67.1255" y="14.7949" width="4.13112" height="3.87293" fill="#1B1C1E"/>
<rect x="17.0356" y="23.3149" width="4.13112" height="3.87293" fill="#1B1C1E"/>
</svg>
