<svg width="44" height="44" viewBox="0 0 44 44" fill="none" xmlns="http://www.w3.org/2000/svg">
<path d="M0 14.0938C0 6.30999 6.30999 0 14.0938 0H29.9062C37.69 0 44 6.30999 44 14.0938V29.9062C44 37.69 37.69 44 29.9062 44H14.0938C6.30999 44 0 37.69 0 29.9062V14.0938Z" fill="#F06150"/>
<path d="M19.4389 19.8728C19.4389 19.8728 23.2602 19.8521 25.7993 20.0866C28.8751 20.4639 30.1794 22.3692 30.5638 25.1984C30.9206 30.8723 25.7502 31.1371 21.6563 31.2061C19.0603 31.2509 16.9659 31.2613 16.9659 31.2613C16.9659 31.2613 23.2032 38.6827 31.0378 33.2671C31.1585 33.1774 34.8043 30.5223 34.5422 25.0519C34.1958 17.8039 28.4024 16.0212 26.4251 16.0212C24.965 15.9712 19.694 15.9988 19.694 15.9988L19.5027 16.0264C17.3169 16.3471 17.2652 19.4814 19.4389 19.8728Z" fill="white"/>
<path d="M24.8278 23.8035C24.8278 23.8035 20.7486 23.8242 18.2095 23.5898C15.7704 23.3656 13.8294 21.3071 13.445 18.4779C13.0882 12.804 17.949 12.5835 22.043 12.5146C24.639 12.4698 26.7333 12.4594 26.7333 12.4594C26.7333 12.4594 21.0977 5.55363 12.971 10.411C12.8503 10.5006 9.20458 13.1557 9.4666 18.6262C9.81307 25.8741 15.9414 27.6006 17.5838 27.6568C19.0438 27.7068 24.5727 27.6792 24.5727 27.6792L24.764 27.6517C26.9497 27.3293 27.0014 24.1949 24.8278 23.8035Z" fill="white"/>
<path d="M8.25 27.6826C7.06345 27.6826 6.10156 26.7207 6.10156 25.5342C6.10156 24.3476 7.06345 23.3857 8.25 23.3857L24.4062 23.3857C25.5928 23.3857 26.5547 24.3476 26.5547 25.5342C26.5547 26.7207 25.5928 27.6826 24.4062 27.6826L8.25 27.6826Z" fill="white"/>
<path d="M19.8516 20.292C18.665 20.292 17.7031 19.3301 17.7031 18.1436C17.7031 16.957 18.665 15.9951 19.8516 15.9951L35.75 15.9951C36.9365 15.9951 37.8984 16.957 37.8984 18.1436C37.8984 19.3301 36.9365 20.292 35.75 20.292L19.8516 20.292Z" fill="white"/>
</svg>
