<svg width="512" height="512" viewBox="0 0 512 512" fill="none" xmlns="http://www.w3.org/2000/svg">
<rect width="512" height="512" rx="164" fill="white"/>
<path d="M220.197 233.121C220.197 233.121 270.664 232.881 300.21 235.609C336 240 351.178 262.171 355.651 295.093C359.803 361.116 299.639 364.198 252 365C221.792 365.522 197.421 365.642 197.421 365.642C197.421 365.642 270 452 361.167 388.982C362.571 387.939 404.994 357.044 401.946 293.387C397.914 209.047 330.5 188.303 307.491 188.303C290.502 187.721 223.166 188.042 223.166 188.042L220.939 188.363C195.506 192.095 194.904 228.567 220.197 233.121Z" fill="#1B1C1E"/>
<path d="M291.905 278.862C291.905 278.862 241.438 279.103 211.893 276.375C183.51 273.767 160.924 249.813 156.451 216.891C152.299 150.868 208.861 148.303 256.5 147.5C286.708 146.978 311.079 146.858 311.079 146.858C311.079 146.858 245.5 66.4999 150.935 123.022C149.531 124.065 107.108 154.96 110.157 218.617C114.188 302.957 185.5 323.046 204.611 323.701C221.601 324.283 288.937 323.962 288.937 323.962L291.163 323.641C316.597 319.889 317.199 283.417 291.905 278.862Z" fill="#1B1C1E"/>
</svg>
